<?xml version="1.0" encoding="iso-8859-1"?>
<!-- Uploaded to: SVG Repo, www.svgrepo.com, Generator: SVG Repo Mixer Tools -->
<svg height="800px" width="800px" version="1.1" id="Layer_1" xmlns="http://www.w3.org/2000/svg" xmlns:xlink="http://www.w3.org/1999/xlink" 
	 viewBox="0 0 512.001 512.001" xml:space="preserve">
<path style="fill:#BCA544;" d="M432.902,126.702h4.312v-4.287c0-5.43-3.798-10.121-9.108-11.253
	c-11.057-2.357-19.081-12.293-19.081-23.625c0-6.354-5.153-11.506-11.507-11.506H39.695c-6.355,0-11.506,5.151-11.506,11.506
	c0,11.333-8.025,21.268-19.082,23.625C3.796,112.294,0,116.984,0,122.415v4.287h3.9c4.465,0,8.084,3.62,8.084,8.084
	c0,4.465-3.618,8.084-8.084,8.084H0v13.883h3.9c4.465,0,8.084,3.62,8.084,8.084s-3.618,8.084-8.084,8.084H0v13.883h3.9
	c4.465,0,8.084,3.62,8.084,8.084s-3.618,8.084-8.084,8.084H0v13.883h3.9c4.465,0,8.084,3.62,8.084,8.084s-3.618,8.084-8.084,8.084H0
	v3.726c0,5.429,3.796,10.121,9.107,11.253c11.057,2.357,19.082,12.293,19.082,23.625c0,6.355,5.151,11.505,11.506,11.505h357.823
	c6.354,0,11.507-5.15,11.507-11.505c0-11.333,8.024-21.269,19.081-23.625c5.31-1.132,9.108-5.823,9.108-11.253v-3.726h-4.312
	c-4.465,0-8.083-3.62-8.083-8.084s3.618-8.084,8.083-8.084h4.312v-13.883h-4.312c-4.465,0-8.083-3.62-8.083-8.084
	s3.618-8.084,8.083-8.084h4.312v-13.884h-4.312c-4.465,0-8.083-3.62-8.083-8.084s3.618-8.084,8.083-8.084h4.312V142.87h-4.312
	c-4.465,0-8.083-3.62-8.083-8.084C424.819,130.322,428.436,126.702,432.902,126.702z"/>
<path style="fill:#FFED84;" d="M195.565,103.07H60.405c-3.164,0-5.753,2.589-5.753,5.752v141.519c0,3.164,2.589,5.753,5.753,5.753
	h135.161L195.565,103.07L195.565,103.07z"/>
<path style="fill:#FFFFFF;" d="M211.734,171.497h170.828v-62.675c0-3.164-2.588-5.752-5.753-5.752H211.734V171.497z"/>
<path style="fill:#F4D242;" d="M211.734,187.666v68.428H376.81c3.164,0,5.753-2.589,5.753-5.753v-62.675H211.734z"/>
<path style="opacity:0.1;enable-background:new    ;" d="M76.658,250.341V108.822c0-3.164,2.589-5.752,5.753-5.752H60.405
	c-3.164,0-5.753,2.589-5.753,5.752v141.519c0,3.164,2.589,5.753,5.753,5.753h22.007C79.247,256.094,76.658,253.505,76.658,250.341z"
	/>
<g>
	<path style="fill:#BCA544;" d="M353.138,137.04H242.684c-4.465,0-8.084-3.62-8.084-8.083c0-4.465,3.618-8.084,8.084-8.084h110.454
		c4.465,0,8.084,3.62,8.084,8.084C361.222,133.422,357.603,137.04,353.138,137.04z"/>
	<path style="fill:#BCA544;" d="M328.977,161.202h-62.131c-4.466,0-8.083-3.62-8.083-8.084s3.618-8.084,8.083-8.084h62.131
		c4.465,0,8.084,3.62,8.084,8.084C337.061,157.583,333.442,161.202,328.977,161.202z"/>
	<path style="fill:#BCA544;" d="M243.834,241.188c-4.465,0-8.084-3.62-8.084-8.084v-24.162c0-4.464,3.618-8.083,8.084-8.083
		c4.465,0,8.084,3.62,8.084,8.083v24.162C251.919,237.568,248.3,241.188,243.834,241.188z"/>
	<path style="fill:#BCA544;" d="M265.696,241.188c-4.465,0-8.084-3.62-8.084-8.084v-24.162c0-4.464,3.62-8.083,8.084-8.083
		s8.083,3.62,8.083,8.083v24.162C273.78,237.568,270.161,241.188,265.696,241.188z"/>
	<path style="fill:#BCA544;" d="M287.556,241.188c-4.465,0-8.084-3.62-8.084-8.084v-24.162c0-4.464,3.62-8.083,8.084-8.083
		c4.465,0,8.083,3.62,8.083,8.083v24.162C295.639,237.568,292.022,241.188,287.556,241.188z"/>
	<path style="fill:#BCA544;" d="M309.417,241.188c-4.465,0-8.084-3.62-8.084-8.084v-24.162c0-4.464,3.62-8.083,8.084-8.083
		c4.464,0,8.083,3.62,8.083,8.083v24.162C317.501,237.568,313.882,241.188,309.417,241.188z"/>
	<path style="fill:#BCA544;" d="M331.278,241.188c-4.465,0-8.083-3.62-8.083-8.084v-24.162c0-4.464,3.618-8.083,8.083-8.083
		c4.465,0,8.084,3.62,8.084,8.083v24.162C339.362,237.568,335.742,241.188,331.278,241.188z"/>
	<path style="fill:#BCA544;" d="M353.138,241.188c-4.465,0-8.084-3.62-8.084-8.084v-24.162c0-4.464,3.62-8.083,8.084-8.083
		c4.465,0,8.084,3.62,8.084,8.083v24.162C361.222,237.568,357.603,241.188,353.138,241.188z"/>
</g>
<path style="fill:#DDBE3C;" d="M507.689,279.542H512v-4.287c0-5.43-3.797-10.121-9.107-11.253
	c-11.057-2.356-19.082-12.293-19.082-23.625c0-6.355-5.152-11.506-11.506-11.506H114.481c-6.355,0-11.505,5.151-11.505,11.506
	c0,11.333-8.026,21.269-19.082,23.625c-5.311,1.132-9.107,5.822-9.107,11.253v4.287h3.9c4.465,0,8.084,3.62,8.084,8.084
	c0,4.464-3.618,8.083-8.084,8.083h-3.9v13.883h3.9c4.465,0,8.084,3.62,8.084,8.083c0,4.465-3.618,8.084-8.084,8.084h-3.9v13.881h3.9
	c4.465,0,8.084,3.62,8.084,8.084c0,4.464-3.618,8.084-8.084,8.084h-3.9v13.883h3.9c4.465,0,8.084,3.62,8.084,8.084
	c0,4.465-3.618,8.084-8.084,8.084h-3.9v3.726c0,5.429,3.796,10.121,9.107,11.253c11.056,2.357,19.082,12.293,19.082,23.625
	c0,6.355,5.151,11.505,11.505,11.505h357.824c6.354,0,11.506-5.15,11.506-11.505c0-11.333,8.025-21.268,19.082-23.625
	c5.31-1.132,9.107-5.823,9.107-11.253v-3.726h-4.311c-4.465,0-8.084-3.62-8.084-8.084c0-4.465,3.62-8.084,8.084-8.084H512V355.81
	h-4.311c-4.465,0-8.084-3.62-8.084-8.084c0-4.465,3.62-8.084,8.084-8.084H512v-13.881h-4.311c-4.465,0-8.084-3.62-8.084-8.084
	c0-4.464,3.62-8.083,8.084-8.083H512v-13.883h-4.311c-4.465,0-8.084-3.62-8.084-8.083
	C499.604,283.162,503.224,279.542,507.689,279.542z"/>
<path style="fill:#FFED84;" d="M270.352,255.909H135.191c-3.164,0-5.753,2.589-5.753,5.753v141.519c0,3.164,2.589,5.752,5.753,5.752
	h135.162V255.909H270.352z"/>
<path style="fill:#FFFFFF;" d="M286.52,324.336h170.828v-62.674c0-3.164-2.589-5.753-5.753-5.753H286.52V324.336z"/>
<path style="fill:#F4D242;" d="M286.52,340.505v68.428h165.075c3.164,0,5.753-2.588,5.753-5.752v-62.676H286.52z"/>
<path style="opacity:0.1;enable-background:new    ;" d="M151.444,403.181V261.662c0-3.164,2.589-5.753,5.753-5.753h-22.007
	c-3.164,0-5.753,2.589-5.753,5.753v141.519c0,3.164,2.589,5.752,5.753,5.752h22.007
	C154.034,408.933,151.444,406.345,151.444,403.181z"/>
<path style="fill:#E84731;" d="M206.148,376.015c-1.444,0-2.831-0.573-3.853-1.593l-37.581-37.596
	c-5.313-5.309-8.238-12.371-8.238-19.88s2.925-14.571,8.238-19.881c5.313-5.311,12.376-8.235,19.891-8.235
	c7.514,0,14.577,2.924,19.89,8.235l1.652,1.65l1.65-1.65c5.313-5.311,12.376-8.235,19.891-8.235c7.514,0,14.578,2.924,19.892,8.235
	c5.31,5.31,8.238,12.372,8.238,19.881c0,7.509-2.927,14.571-8.238,19.881l-37.581,37.595
	C208.977,375.442,207.592,376.015,206.148,376.015z"/>
<path style="opacity:0.1;enable-background:new    ;" d="M216.779,365.415c-1.444,0-2.831-0.573-3.853-1.593l-37.581-37.596
	c-5.313-5.309-8.238-12.371-8.238-19.88c0-4.95,1.278-9.701,3.665-13.888c-2.19,1.241-4.23,2.778-6.058,4.606
	c-5.313,5.31-8.238,12.372-8.238,19.881c0,7.509,2.925,14.571,8.238,19.88l37.581,37.596c1.022,1.021,2.407,1.593,3.853,1.593
	c1.444,0,2.831-0.573,3.852-1.593l10.433-10.438C219.433,364.893,218.137,365.415,216.779,365.415z"/>
<path style="fill:#E84731;" d="M131.361,223.175c-1.444,0-2.831-0.573-3.853-1.593l-37.581-37.596
	c-5.313-5.309-8.239-12.371-8.239-19.88s2.926-14.57,8.239-19.88c5.312-5.311,12.376-8.235,19.891-8.235
	c7.513,0,14.577,2.925,19.89,8.235l1.652,1.65l1.651-1.65c5.313-5.311,12.376-8.235,19.891-8.235c7.514,0,14.578,2.925,19.892,8.235
	c5.31,5.31,8.238,12.372,8.238,19.88c0,7.51-2.928,14.571-8.238,19.881l-37.581,37.595
	C134.192,222.602,132.805,223.175,131.361,223.175z"/>
<path style="opacity:0.1;enable-background:new    ;" d="M141.992,212.575c-1.444,0-2.831-0.573-3.853-1.593l-37.581-37.596
	c-5.313-5.309-8.239-12.371-8.239-19.88c0-4.95,1.278-9.701,3.667-13.887c-2.19,1.241-4.23,2.778-6.058,4.606
	c-5.313,5.31-8.239,12.372-8.239,19.88c0,7.51,2.926,14.571,8.239,19.88l37.581,37.596c1.022,1.021,2.407,1.593,3.853,1.593
	c1.444,0,2.831-0.573,3.852-1.593l10.432-10.437C144.645,212.053,143.351,212.575,141.992,212.575z"/>
<g>
	<path style="fill:#BCA544;" d="M427.924,289.881H317.47c-4.465,0-8.083-3.62-8.083-8.084c0-4.465,3.618-8.084,8.083-8.084h110.454
		c4.465,0,8.083,3.62,8.083,8.084C436.008,286.261,432.389,289.881,427.924,289.881z"/>
	<path style="fill:#BCA544;" d="M403.763,314.042h-62.131c-4.465,0-8.083-3.62-8.083-8.083c0-4.465,3.618-8.084,8.083-8.084h62.131
		c4.465,0,8.083,3.62,8.083,8.084C411.846,310.422,408.229,314.042,403.763,314.042z"/>
	<path style="fill:#BCA544;" d="M318.622,394.028c-4.465,0-8.084-3.62-8.084-8.084v-24.162c0-4.465,3.62-8.084,8.084-8.084
		c4.464,0,8.083,3.62,8.083,8.084v24.162C326.705,390.408,323.086,394.028,318.622,394.028z"/>
	<path style="fill:#BCA544;" d="M340.482,394.028c-4.465,0-8.083-3.62-8.083-8.084v-24.162c0-4.465,3.618-8.084,8.083-8.084
		c4.465,0,8.084,3.62,8.084,8.084v24.162C348.566,390.408,344.947,394.028,340.482,394.028z"/>
	<path style="fill:#BCA544;" d="M362.341,394.028c-4.465,0-8.083-3.62-8.083-8.084v-24.162c0-4.465,3.618-8.084,8.083-8.084
		c4.465,0,8.084,3.62,8.084,8.084v24.162C370.427,390.408,366.807,394.028,362.341,394.028z"/>
	<path style="fill:#BCA544;" d="M384.203,394.028c-4.465,0-8.084-3.62-8.084-8.084v-24.162c0-4.465,3.62-8.084,8.084-8.084
		c4.465,0,8.084,3.62,8.084,8.084v24.162C392.288,390.408,388.669,394.028,384.203,394.028z"/>
	<path style="fill:#BCA544;" d="M406.064,394.028c-4.465,0-8.084-3.62-8.084-8.084v-24.162c0-4.465,3.62-8.084,8.084-8.084
		c4.465,0,8.084,3.62,8.084,8.084v24.162C414.148,390.408,410.53,394.028,406.064,394.028z"/>
	<path style="fill:#BCA544;" d="M427.924,394.028c-4.465,0-8.084-3.62-8.084-8.084v-24.162c0-4.465,3.62-8.084,8.084-8.084
		c4.465,0,8.083,3.62,8.083,8.084v24.162C436.008,390.408,432.389,394.028,427.924,394.028z"/>
</g>
</svg>